<?xml version="1.0" encoding="UTF-8" standalone="no"?>
<!DOCTYPE svg PUBLIC "-//W3C//DTD SVG 1.1//EN" "http://www.w3.org/Graphics/SVG/1.1/DTD/svg11.dtd">
<svg width="100%" height="100%" viewBox="0 0 1245 832" version="1.1" xmlns="http://www.w3.org/2000/svg" xmlns:xlink="http://www.w3.org/1999/xlink" xml:space="preserve" xmlns:serif="http://www.serif.com/" style="fill-rule:evenodd;clip-rule:evenodd;stroke-linecap:round;stroke-linejoin:round;stroke-miterlimit:1.5;">
    <g id="Calque3" transform="matrix(-0.999577,0.0290699,0.0290699,0.999577,1239.34,-666.811)">
        <g id="Calque1">
            <path d="M281.128,1248.55L151.512,1253.14L147.064,1148.81L268.339,932.518L389.367,924.776L398.889,1183.75" style="fill:none;stroke:black;stroke-width:23.17px;"/>
            <path d="M389.399,919.629L385.577,831.952L1000.21,806.281L1013.94,1223.85L975.878,1225.82" style="fill:none;stroke:black;stroke-width:23.17px;"/>
            <path d="M832.673,1233.65L429.885,1244.72" style="fill:none;stroke:black;stroke-width:23.17px;"/>
            <path d="M269.776,935.132L278.095,1144.27L148.485,1149.04L269.776,935.132Z" style="stroke:black;stroke-width:23.17px;"/>
            <ellipse id="phare" cx="201.884" cy="1196.28" rx="16.933" ry="22.883" style="fill:none;stroke:black;stroke-width:23.17px;"/>
            <g transform="matrix(-0.999577,0.0290699,0.0290699,0.999577,1226.26,631.595)">
                <path d="M874.987,499.071C923.378,499.071 962.666,539.464 962.666,589.217C962.666,638.97 923.378,679.364 874.987,679.364C826.596,679.364 787.309,638.97 787.309,589.217C787.309,539.464 826.596,499.071 874.987,499.071ZM874.987,531.083C906.195,531.083 931.531,557.132 931.531,589.217C931.531,621.303 906.195,647.352 874.987,647.352C843.78,647.352 818.444,621.303 818.444,589.217C818.444,557.132 843.78,531.083 874.987,531.083Z" style="stroke:black;stroke-width:23.17px;"/>
            </g>
            <g transform="matrix(-0.999577,0.0290699,0.0290699,0.999577,1763.47,616.795)">
                <path d="M874.987,499.071C923.378,499.071 962.666,539.464 962.666,589.217C962.666,638.97 923.378,679.364 874.987,679.364C826.596,679.364 787.309,638.97 787.309,589.217C787.309,539.464 826.596,499.071 874.987,499.071ZM874.987,531.083C906.195,531.083 931.531,557.132 931.531,589.217C931.531,621.303 906.195,647.352 874.987,647.352C843.78,647.352 818.444,621.303 818.444,589.217C818.444,557.132 843.78,531.083 874.987,531.083Z" style="stroke:black;stroke-width:23.17px;"/>
            </g>
            <g transform="matrix(0.999882,-0.0153848,0.0153848,0.999882,-31.1707,659.998)">
                <path d="M1179.36,523.936C1183.84,524.7 1188.26,526.642 1191.62,530.42C1194.11,533.229 1196.08,537.1 1196.83,542.51C1198.16,552.15 1194.09,558.561 1188.6,562.72C1191.41,564.635 1193.95,567.121 1195.79,570.287C1198.87,575.614 1200.2,583.031 1196.52,593.378C1192.81,603.797 1186.24,609.711 1178.81,612.292C1168.06,616.03 1154.93,612.55 1144.99,603.721C1138.05,597.568 1130.02,581.934 1127.87,577.601C1126.32,577.148 1124.12,576.749 1121.34,576.288C1110.35,574.461 1091.81,572.687 1068.35,570.115C1065.38,569.79 1063.04,567.463 1062.68,564.503C1062.34,561.542 1064.07,558.732 1066.88,557.725C1073.59,555.317 1108.68,542.903 1122.47,538.025C1121.48,533.577 1120.46,527.183 1120.72,520.437C1121.25,506.737 1126.78,491.885 1145.88,486.613C1153.93,484.392 1164.08,488.288 1171.42,495.419C1178.81,502.595 1182.96,512.639 1180.71,520.869C1180.48,521.712 1180.02,522.771 1179.36,523.936ZM1168.4,517.337C1169.45,513.077 1166.32,508.311 1162.5,504.607C1158.59,500.813 1153.57,497.775 1149.29,498.956C1137.03,502.339 1133.86,512.138 1133.52,520.928C1133.13,530.95 1136.23,540.01 1136.23,540.01C1137.38,543.333 1135.62,546.955 1132.31,548.126C1132.31,548.126 1114.28,554.501 1097.63,560.396L1097.63,560.397C1108.37,561.571 1117.13,562.607 1123.44,563.656C1129.07,564.592 1133.02,565.667 1135.09,566.702C1135.68,566.999 1137.62,568.495 1139.31,571.712C1141.86,576.552 1147.25,588.606 1153.49,594.145C1159.75,599.705 1167.84,602.55 1174.61,600.197C1178.86,598.718 1182.33,595.057 1184.45,589.088C1186.43,583.538 1186.36,579.556 1184.7,576.699C1183.23,574.149 1180.69,572.654 1178.29,571.637C1173.98,569.817 1169.8,569.577 1169.8,569.577C1166.46,569.402 1163.82,566.691 1163.74,563.351C1163.65,560.01 1166.14,557.165 1169.47,556.816C1169.47,556.816 1173.99,556.329 1178.28,554.121C1181.56,552.435 1184.87,549.553 1184.14,544.258C1183.76,541.509 1182.88,539.588 1181.49,538.378C1179.25,536.422 1176.13,536.257 1173.55,536.35C1170,536.477 1167.16,537.376 1167.16,537.376C1164.35,538.282 1161.29,537.159 1159.74,534.654C1158.19,532.15 1158.55,528.91 1160.61,526.805C1160.61,526.805 1163.42,523.938 1165.86,520.934C1166.87,519.693 1168.2,517.644 1168.4,517.337Z"/>
            </g>
        </g>
        <g id="Calque2" transform="matrix(0.528525,-0.0909801,0.0909801,0.528525,360.104,872.336)">
            <path d="M731.743,612.384L369.774,642.654L316.627,181.234L682.109,137.811L731.743,612.384Z" style="fill:none;stroke:black;stroke-width:14.92px;"/>
            <path d="M312.707,177.815L358.911,133.606L732.807,86.794L773.919,569.756" style="fill:none;stroke:black;stroke-width:14.92px;"/>
            <g transform="matrix(1,0,0,1,-0.415988,-2.29358)">
                <path d="M684.189,140.201C691.241,109.518 731.512,92.469 731.512,92.469" style="fill:none;stroke:black;stroke-width:14.92px;"/>
            </g>
            <path d="M733.706,612.246C738.042,579.997 775.152,570.034 775.152,570.034" style="fill:none;stroke:black;stroke-width:14.92px;"/>
            <path d="M335.914,179.533L389.696,638.917" style="fill:none;stroke:black;stroke-width:14.92px;"/>
            <g transform="matrix(0.987934,0.00140202,0.00140202,0.999837,5.08327,-0.590652)">
                <path d="M713.029,103.289L437.015,135.36" style="fill:none;stroke:black;stroke-width:7.49px;"/>
            </g>
            <g transform="matrix(0.990472,0.0010111,0.0010111,0.999893,5.53941,-0.58785)">
                <path d="M694.133,117.501L594.983,128.022" style="fill:none;stroke:black;stroke-width:7.49px;"/>
            </g>
            <g transform="matrix(0.987441,0.00138389,0.00138389,0.999848,4.59316,-0.506121)">
                <path d="M689.228,127.987L383.539,161.671" style="fill:none;stroke:black;stroke-width:7.5px;"/>
            </g>
        </g>
    </g>
</svg>
