<?xml version="1.0" encoding="UTF-8" standalone="no"?>
<!DOCTYPE svg PUBLIC "-//W3C//DTD SVG 1.1//EN" "http://www.w3.org/Graphics/SVG/1.1/DTD/svg11.dtd">
<svg width="100%" height="100%" viewBox="0 0 1245 832" version="1.1" xmlns="http://www.w3.org/2000/svg" xmlns:xlink="http://www.w3.org/1999/xlink" xml:space="preserve" xmlns:serif="http://www.serif.com/" style="fill-rule:evenodd;clip-rule:evenodd;stroke-linecap:round;stroke-linejoin:round;stroke-miterlimit:1.5;">
    <g id="Calque2" transform="matrix(1,0,0,1,78.5705,0)">
        <path d="M731.743,612.384L369.774,642.654L316.627,181.234L682.109,137.811L731.743,612.384Z" style="fill:none;stroke:black;stroke-width:8px;"/>
        <path d="M312.707,177.815L358.911,133.606L732.807,86.794L773.919,569.756" style="fill:none;stroke:black;stroke-width:8px;"/>
        <g transform="matrix(1,0,0,1,-0.415988,-2.29358)">
            <path d="M684.189,140.201C691.241,109.518 731.512,92.469 731.512,92.469" style="fill:none;stroke:black;stroke-width:8px;"/>
        </g>
        <path d="M733.706,612.246C738.042,579.997 775.152,570.034 775.152,570.034" style="fill:none;stroke:black;stroke-width:8px;"/>
        <path d="M335.914,179.533L389.696,638.917" style="fill:none;stroke:black;stroke-width:8px;"/>
        <g transform="matrix(0.987934,0.00140202,0.00140202,0.999837,5.08327,-0.590652)">
            <path d="M713.029,103.289L437.015,135.36" style="fill:none;stroke:black;stroke-width:4.02px;"/>
        </g>
        <g transform="matrix(0.990472,0.0010111,0.0010111,0.999893,5.53941,-0.58785)">
            <path d="M694.133,117.501L594.983,128.022" style="fill:none;stroke:black;stroke-width:4.02px;"/>
        </g>
        <g transform="matrix(0.987441,0.00138389,0.00138389,0.999848,4.59316,-0.506121)">
            <path d="M689.228,127.987L383.539,161.671" style="fill:none;stroke:black;stroke-width:4.02px;"/>
        </g>
    </g>
</svg>
