<?xml version="1.0" encoding="UTF-8" standalone="no"?>
<!DOCTYPE svg PUBLIC "-//W3C//DTD SVG 1.1//EN" "http://www.w3.org/Graphics/SVG/1.1/DTD/svg11.dtd">
<svg width="100%" height="100%" viewBox="0 0 1245 832" version="1.1" xmlns="http://www.w3.org/2000/svg" xmlns:xlink="http://www.w3.org/1999/xlink" xml:space="preserve" xmlns:serif="http://www.serif.com/" style="fill-rule:evenodd;clip-rule:evenodd;stroke-linecap:round;stroke-linejoin:round;stroke-miterlimit:1.5;">
    <g id="Calque3" transform="matrix(-0.999577,0.0290699,0.0290699,0.999577,1239.34,-666.811)">
        <g id="Calque1">
            <path d="M284.606,1253.07L152.079,1262.97L147.064,1148.81L268.339,932.518L389.367,924.776L398.889,1183.75" style="fill:none;stroke:black;stroke-width:8px;"/>
            <path d="M389.399,919.629L385.577,831.952L1000.21,806.281L1013.94,1223.85L975.878,1225.82" style="fill:none;stroke:black;stroke-width:8px;"/>
            <path d="M832.673,1233.65L429.885,1244.72" style="fill:none;stroke:black;stroke-width:8px;"/>
            <path d="M269.776,935.132L277.608,1140.08L148.868,1147.85" style="fill:none;stroke:black;stroke-width:8px;"/>
            <ellipse id="phare" cx="201.884" cy="1196.28" rx="16.933" ry="22.883" style="fill:rgb(235,235,235);stroke:black;stroke-width:8px;"/>
            <g>
                <ellipse cx="356.237" cy="1246.36" rx="71.63" ry="78.223" style="fill:none;stroke:black;stroke-width:8px;"/>
                <g transform="matrix(0.624609,0,0,1,135.41,0.975536)">
                    <ellipse cx="358.606" cy="1247.6" rx="28.713" ry="22.924" style="fill:none;stroke:black;stroke-width:9.6px;"/>
                </g>
            </g>
            <g transform="matrix(1,0,0,1,549.658,-3.60432)">
                <ellipse cx="356.237" cy="1246.36" rx="71.63" ry="78.223" style="fill:none;stroke:black;stroke-width:8px;"/>
                <g transform="matrix(0.621081,0,0,1,133.971,-0.0265708)">
                    <ellipse cx="358.606" cy="1247.6" rx="28.713" ry="22.924" style="fill:none;stroke:black;stroke-width:9.61px;"/>
                </g>
            </g>
            <g transform="matrix(0.999882,-0.0153848,0.0153848,0.999882,-48.3261,659.06)">
                <path d="M1130.31,574.859C1128.61,574.172 1125.76,573.572 1121.9,572.931C1110.87,571.098 1092.26,569.314 1068.72,566.733C1067.33,566.581 1066.23,565.49 1066.06,564.103C1065.9,562.716 1066.71,561.399 1068.03,560.927C1075.28,558.325 1115.66,544.043 1126.5,540.209C1125.44,536.256 1123.81,528.68 1124.12,520.568C1124.6,508.173 1129.5,494.663 1146.79,489.893C1153.83,487.949 1162.62,491.618 1169.05,497.861C1175.5,504.124 1179.39,512.79 1177.43,519.974C1177.07,521.28 1175.97,523.186 1174.49,525.156C1174.05,525.752 1173.57,526.36 1173.07,526.962C1174.37,526.909 1175.74,526.929 1177.13,527.068C1181.44,527.498 1185.85,529.053 1189.07,532.678C1191.19,535.067 1192.82,538.376 1193.46,542.974C1194.88,553.28 1188.96,559.198 1182.58,562.481C1182.31,562.624 1182.03,562.761 1181.75,562.894C1181.82,562.922 1181.88,562.95 1181.95,562.978C1186.11,564.736 1190.29,567.579 1192.84,571.991C1195.54,576.66 1196.54,583.167 1193.31,592.239C1190.03,601.474 1184.28,606.79 1177.69,609.079C1168,612.448 1156.21,609.137 1147.25,601.177C1139.52,594.323 1132.63,578.753 1130.31,574.859ZM1082.42,562.179C1099.95,564.058 1113.91,565.521 1122.88,567.012C1128.04,567.87 1131.67,568.797 1133.57,569.745C1133.86,569.893 1134.27,570.153 1134.68,570.636C1135.02,571.039 1135.6,571.962 1136.3,573.298C1138.96,578.359 1144.7,590.898 1151.23,596.69C1158.47,603.117 1167.89,606.131 1175.72,603.411C1180.82,601.639 1185.12,597.379 1187.66,590.228C1190.09,583.405 1189.68,578.507 1187.65,574.995C1185.78,571.772 1182.65,569.788 1179.61,568.504C1174.73,566.438 1169.98,566.18 1169.98,566.18C1168.41,566.098 1167.18,564.827 1167.14,563.262C1167.1,561.697 1168.27,560.363 1169.82,560.2C1169.82,560.2 1174.96,559.655 1179.84,557.146C1184.24,554.882 1188.49,550.901 1187.51,543.793C1187.08,540.625 1186.04,538.307 1184.58,536.661C1182.43,534.236 1179.42,533.326 1176.54,533.038C1171.17,532.503 1166.11,534.139 1166.11,534.139C1164.8,534.563 1163.36,534.037 1162.63,532.863C1161.91,531.69 1162.08,530.172 1163.04,529.185C1163.04,529.185 1167,525.148 1169.69,521.557C1170.61,520.329 1171.42,519.21 1171.64,518.395C1173.1,513.053 1169.67,506.823 1164.87,502.166C1160.05,497.488 1153.66,494.22 1148.38,495.676C1134.31,499.561 1130.51,510.703 1130.12,520.797C1129.71,531.469 1133.02,541.115 1133.02,541.115C1133.55,542.672 1132.73,544.369 1131.18,544.918C1131.18,544.918 1100.72,555.688 1082.42,562.179L1082.42,562.179Z"/>
            </g>
        </g>
        <g id="Calque2" transform="matrix(0.528525,-0.0909801,0.0909801,0.528525,360.104,872.336)">
            <path d="M731.743,612.384L369.774,642.654L316.627,181.234L682.109,137.811L731.743,612.384Z" style="fill:none;stroke:black;stroke-width:14.92px;"/>
            <path d="M312.707,177.815L358.911,133.606L732.807,86.794L773.919,569.756" style="fill:none;stroke:black;stroke-width:14.92px;"/>
            <g transform="matrix(1,0,0,1,-0.415988,-2.29358)">
                <path d="M684.189,140.201C691.241,109.518 731.512,92.469 731.512,92.469" style="fill:none;stroke:black;stroke-width:14.92px;"/>
            </g>
            <path d="M733.706,612.246C738.042,579.997 775.152,570.034 775.152,570.034" style="fill:none;stroke:black;stroke-width:14.92px;"/>
            <path d="M335.914,179.533L389.696,638.917" style="fill:none;stroke:black;stroke-width:14.92px;"/>
            <g transform="matrix(0.987934,0.00140202,0.00140202,0.999837,5.08327,-0.590652)">
                <path d="M713.029,103.289L437.015,135.36" style="fill:none;stroke:black;stroke-width:7.49px;"/>
            </g>
            <g transform="matrix(0.990472,0.0010111,0.0010111,0.999893,5.53941,-0.58785)">
                <path d="M694.133,117.501L594.983,128.022" style="fill:none;stroke:black;stroke-width:7.49px;"/>
            </g>
            <g transform="matrix(0.987441,0.00138389,0.00138389,0.999848,4.59316,-0.506121)">
                <path d="M689.228,127.987L383.539,161.671" style="fill:none;stroke:black;stroke-width:7.5px;"/>
            </g>
        </g>
    </g>
</svg>
