<?xml version="1.0" encoding="UTF-8" standalone="no"?>
<!DOCTYPE svg PUBLIC "-//W3C//DTD SVG 1.1//EN" "http://www.w3.org/Graphics/SVG/1.1/DTD/svg11.dtd">
<svg width="100%" height="100%" viewBox="0 0 4032 3024" version="1.1" xmlns="http://www.w3.org/2000/svg" xmlns:xlink="http://www.w3.org/1999/xlink" xml:space="preserve" xmlns:serif="http://www.serif.com/" style="fill-rule:evenodd;clip-rule:evenodd;stroke-linecap:round;stroke-linejoin:round;stroke-miterlimit:1.5;">
    <g id="Calque1" transform="matrix(2.51071,0,0,2.51071,-3331.17,-2200.2)">
        <path d="M2592.82,1181.64C2567.78,1150.44 1862.92,1152.58 1830.9,1177.71C1797.33,1204.05 1820.86,1639.23 1836.42,1648.02C1858.08,1660.24 2479.09,1662.32 2494.26,1651.88C2521.75,1632.97 2616.16,1210.73 2592.82,1181.64Z" style="fill:none;stroke:black;stroke-width:79.66px;"/>
        <g transform="matrix(0.942678,0,0,1,589.527,-49.7932)">
            <path d="M1955.38,1765.82C2024.07,1765.82 2079.85,1818.86 2079.85,1884.2C2079.85,1949.55 2024.07,2002.6 1955.38,2002.6C1886.68,2002.6 1830.9,1949.55 1830.9,1884.2C1830.9,1818.86 1886.68,1765.82 1955.38,1765.82ZM1955.38,1825.01C1989.72,1825.01 2017.61,1851.53 2017.61,1884.2C2017.61,1916.88 1989.72,1943.4 1955.38,1943.4C1921.03,1943.4 1893.14,1916.88 1893.14,1884.2C1893.14,1851.53 1921.03,1825.01 1955.38,1825.01Z"/>
        </g>
        <g transform="matrix(0.942678,0,0,1,91.5582,-49.7932)">
            <path d="M1955.38,1765.82C2024.07,1765.82 2079.85,1818.86 2079.85,1884.2C2079.85,1949.55 2024.07,2002.6 1955.38,2002.6C1886.68,2002.6 1830.9,1949.55 1830.9,1884.2C1830.9,1818.86 1886.68,1765.82 1955.38,1765.82ZM1955.38,1825.01C1989.72,1825.01 2017.61,1851.53 2017.61,1884.2C2017.61,1916.88 1989.72,1943.4 1955.38,1943.4C1921.03,1943.4 1893.14,1916.88 1893.14,1884.2C1893.14,1851.53 1921.03,1825.01 1955.38,1825.01Z"/>
        </g>
        <path d="M1667.24,1045.19C1684.41,1043.35 1707.73,1043.52 1729.01,1048.24C1742.86,1051.31 1756.87,1054.61 1762.73,1065.1C1786.54,1107.66 1785.65,1177.54 1777.85,1232.57C1774.76,1254.33 1789.92,1274.51 1811.69,1277.6C1833.45,1280.69 1853.63,1265.52 1856.72,1243.76C1866.88,1172.12 1863.25,1081.62 1832.25,1026.2C1818.98,1002.48 1794.78,985.347 1765.12,975.607C1730.48,964.234 1688.28,962.821 1658.76,965.984C1636.9,968.326 1621.06,987.972 1623.4,1009.83C1625.74,1031.69 1645.38,1047.53 1667.24,1045.19Z"/>
    </g>
</svg>
